<?xml version="1.0" encoding="UTF-8" standalone="no"?>
<!DOCTYPE svg PUBLIC "-//W3C//DTD SVG 1.1//EN"
 "http://www.w3.org/Graphics/SVG/1.1/DTD/svg11.dtd">
<!-- Generated by graphviz version 12.0.0 (20240704.0754)
 -->
<!-- Pages: 1 -->
<svg width="317pt" height="69pt"
 viewBox="0.00 0.00 316.98 68.50" xmlns="http://www.w3.org/2000/svg" xmlns:xlink="http://www.w3.org/1999/xlink">
<g id="graph0" class="graph" transform="scale(1 1) rotate(0) translate(4 64.5)">
<polygon fill="white" stroke="none" points="-4,4 -4,-64.5 312.98,-64.5 312.98,4 -4,4"/>
<text text-anchor="middle" x="154.49" y="-7.2" font-family="Times,serif" font-size="14.00">Generator only (Bruteforce)</text>
<!-- testinput -->
<g id="node1" class="node">
<title>testinput</title>
<polygon fill="none" stroke="black" points="203.04,-60.5 131.54,-60.5 131.54,-24.5 203.04,-24.5 203.04,-60.5"/>
<text text-anchor="start" x="139.54" y="-37.45" font-family="Times,serif" font-size="14.00">Test Input</text>
</g>
<!-- Solver -->
<g id="node3" class="node">
<title>Solver</title>
<ellipse fill="none" stroke="black" cx="274.01" cy="-42.5" rx="34.97" ry="18"/>
<text text-anchor="middle" x="274.01" y="-37.45" font-family="Times,serif" font-size="14.00">Solver</text>
</g>
<!-- testinput&#45;&gt;Solver -->
<g id="edge2" class="edge">
<title>testinput&#45;&gt;Solver</title>
<path fill="none" stroke="black" d="M203.45,-42.5C211.12,-42.5 219.33,-42.5 227.34,-42.5"/>
<polygon fill="black" stroke="black" points="227.32,-46 237.32,-42.5 227.32,-39 227.32,-46"/>
</g>
<!-- Generator -->
<g id="node2" class="node">
<title>Generator</title>
<ellipse fill="none" stroke="black" cx="47.77" cy="-42.5" rx="47.77" ry="18"/>
<text text-anchor="middle" x="47.77" y="-37.45" font-family="Times,serif" font-size="14.00">Generator</text>
</g>
<!-- Generator&#45;&gt;testinput -->
<g id="edge1" class="edge">
<title>Generator&#45;&gt;testinput</title>
<path fill="none" stroke="black" d="M95.89,-42.5C103.79,-42.5 111.97,-42.5 119.85,-42.5"/>
<polygon fill="black" stroke="black" points="119.58,-46 129.58,-42.5 119.58,-39 119.58,-46"/>
</g>
</g>
</svg>
