<?xml version="1.0" encoding="UTF-8" standalone="no"?>
<!DOCTYPE svg PUBLIC "-//W3C//DTD SVG 1.1//EN"
 "http://www.w3.org/Graphics/SVG/1.1/DTD/svg11.dtd">
<!-- Generated by graphviz version 12.0.0 (20240704.0754)
 -->
<!-- Pages: 1 -->
<svg width="577pt" height="123pt"
 viewBox="0.00 0.00 577.50 122.50" xmlns="http://www.w3.org/2000/svg" xmlns:xlink="http://www.w3.org/1999/xlink">
<g id="graph0" class="graph" transform="scale(1 1) rotate(0) translate(4 118.5)">
<text text-anchor="middle" x="284.75" y="-7.2" font-family="Times,serif" font-size="14.00">Generator &amp; Comparator</text>
<!-- testinput -->
<g id="node1" class="node">
<title>testinput</title>
<polygon fill="none" stroke="black" points="203.04,-87.5 131.54,-87.5 131.54,-51.5 203.04,-51.5 203.04,-87.5"/>
<text text-anchor="start" x="139.54" y="-64.45" font-family="Times,serif" font-size="14.00">Test Input</text>
</g>
<!-- Comparator -->
<g id="node4" class="node">
<title>Comparator</title>
<ellipse fill="none" stroke="black" cx="294.48" cy="-96.5" rx="55.45" ry="18"/>
<text text-anchor="middle" x="294.48" y="-91.45" font-family="Times,serif" font-size="14.00">Comparator</text>
</g>
<!-- testinput&#45;&gt;Comparator -->
<g id="edge2" class="edge">
<title>testinput&#45;&gt;Comparator</title>
<path fill="none" stroke="blue" d="M203.49,-77.09C213.8,-79.32 225.34,-81.8 236.63,-84.24"/>
<polygon fill="blue" stroke="blue" points="235.79,-87.64 246.3,-86.32 237.26,-80.79 235.79,-87.64"/>
</g>
<!-- Solver -->
<g id="node5" class="node">
<title>Solver</title>
<ellipse fill="none" stroke="black" cx="294.48" cy="-42.5" rx="34.97" ry="18"/>
<text text-anchor="middle" x="294.48" y="-37.45" font-family="Times,serif" font-size="14.00">Solver</text>
</g>
<!-- testinput&#45;&gt;Solver -->
<g id="edge4" class="edge">
<title>testinput&#45;&gt;Solver</title>
<path fill="none" stroke="blue" d="M203.49,-61.91C218.28,-58.72 235.6,-54.98 251.07,-51.65"/>
<polygon fill="blue" stroke="blue" points="251.44,-55.15 260.48,-49.62 249.96,-48.31 251.44,-55.15"/>
</g>
<!-- checker -->
<g id="node2" class="node">
<title>checker</title>
<ellipse fill="none" stroke="black" cx="477.71" cy="-69.5" rx="91.78" ry="18"/>
<text text-anchor="start" x="418.46" y="-64.45" font-family="Times,serif" font-size="14.00">Token&#45;based Checker</text>
</g>
<!-- Generator -->
<g id="node3" class="node">
<title>Generator</title>
<ellipse fill="none" stroke="black" cx="47.77" cy="-69.5" rx="47.77" ry="18"/>
<text text-anchor="middle" x="47.77" y="-64.45" font-family="Times,serif" font-size="14.00">Generator</text>
</g>
<!-- Generator&#45;&gt;testinput -->
<g id="edge1" class="edge">
<title>Generator&#45;&gt;testinput</title>
<path fill="none" stroke="blue" d="M95.89,-69.5C103.79,-69.5 111.97,-69.5 119.85,-69.5"/>
<polygon fill="blue" stroke="blue" points="119.58,-73 129.58,-69.5 119.58,-66 119.58,-73"/>
</g>
<!-- Comparator&#45;&gt;checker -->
<g id="edge3" class="edge">
<title>Comparator&#45;&gt;checker</title>
<path fill="none" stroke="blue" d="M345.49,-89.05C360.04,-86.88 376.36,-84.45 392.42,-82.06"/>
<polygon fill="blue" stroke="blue" points="392.59,-85.57 401.97,-80.64 391.56,-78.65 392.59,-85.57"/>
</g>
<!-- Solver&#45;&gt;checker -->
<g id="edge5" class="edge">
<title>Solver&#45;&gt;checker</title>
<path fill="none" stroke="blue" d="M328.3,-47.39C346.36,-50.08 369.67,-53.55 392.45,-56.95"/>
<polygon fill="blue" stroke="blue" points="391.66,-60.37 402.06,-58.38 392.69,-53.44 391.66,-60.37"/>
</g>
</g>
</svg>
