<?xml version="1.0" encoding="UTF-8" standalone="no"?>
<!DOCTYPE svg PUBLIC "-//W3C//DTD SVG 1.1//EN"
 "http://www.w3.org/Graphics/SVG/1.1/DTD/svg11.dtd">
<!-- Generated by graphviz version 12.0.0 (20240704.0754)
 -->
<!-- Pages: 1 -->
<svg width="540pt" height="73pt"
 viewBox="0.00 0.00 540.43 73.02" xmlns="http://www.w3.org/2000/svg" xmlns:xlink="http://www.w3.org/1999/xlink">
<g id="graph0" class="graph" transform="scale(1 1) rotate(0) translate(4 69.02)">
<polygon fill="white" stroke="none" points="-4,4 -4,-69.02 536.43,-69.02 536.43,4 -4,4"/>
<text text-anchor="middle" x="266.21" y="-7.2" font-family="Times,serif" font-size="14.00">Generator &amp; Interactive Checker</text>
<!-- generator -->
<g id="node1" class="node">
<title>generator</title>
<ellipse fill="none" stroke="black" cx="47.77" cy="-47.02" rx="47.77" ry="18"/>
<text text-anchor="start" x="20.77" y="-41.97" font-family="Times,serif" font-size="14.00">Generator</text>
</g>
<!-- testinput -->
<g id="node2" class="node">
<title>testinput</title>
<polygon fill="none" stroke="black" points="209.79,-65.02 138.29,-65.02 138.29,-29.02 209.79,-29.02 209.79,-65.02"/>
<text text-anchor="start" x="146.29" y="-41.97" font-family="Times,serif" font-size="14.00">Test Input</text>
</g>
<!-- generator&#45;&gt;testinput -->
<g id="edge1" class="edge">
<title>generator&#45;&gt;testinput</title>
<path fill="none" stroke="black" d="M95.75,-47.02C105.83,-47.02 116.47,-47.02 126.53,-47.02"/>
<polygon fill="black" stroke="black" points="126.49,-50.52 136.49,-47.02 126.49,-43.52 126.49,-50.52"/>
<text text-anchor="start" x="113.54" y="-50.22" font-family="Times,serif" font-size="14.00">1</text>
</g>
<!-- ichecker -->
<g id="node4" class="node">
<title>ichecker</title>
<ellipse fill="none" stroke="black" cx="336.13" cy="-47.02" rx="83.6" ry="18"/>
<text text-anchor="start" x="282.88" y="-41.97" font-family="Times,serif" font-size="14.00">Interactive Checker</text>
</g>
<!-- testinput&#45;&gt;ichecker -->
<g id="edge2" class="edge">
<title>testinput&#45;&gt;ichecker</title>
<path fill="none" stroke="black" d="M210.17,-47.02C219.46,-47.02 229.95,-47.02 240.79,-47.02"/>
<polygon fill="black" stroke="black" points="240.68,-50.52 250.68,-47.02 240.68,-43.52 240.68,-50.52"/>
<text text-anchor="start" x="227.79" y="-50.22" font-family="Times,serif" font-size="14.00">2</text>
</g>
<!-- solver -->
<g id="node3" class="node">
<title>solver</title>
<ellipse fill="none" stroke="black" cx="497.45" cy="-47.02" rx="34.97" ry="18"/>
<text text-anchor="start" x="479.83" y="-41.97" font-family="Times,serif" font-size="14.00">Solver</text>
</g>
<!-- solver&#45;&gt;ichecker -->
<g id="edge4" class="edge">
<title>solver&#45;&gt;ichecker</title>
<path fill="none" stroke="black" d="M471.12,-34.83C462.82,-31.44 453.44,-28.22 444.48,-26.52 427.12,-23.22 408.19,-25.03 391.13,-28.68"/>
<polygon fill="black" stroke="black" points="390.6,-25.2 381.69,-30.94 392.23,-32.01 390.6,-25.2"/>
<text text-anchor="start" x="437.73" y="-29.22" font-family="Times,serif" font-size="14.00">4</text>
</g>
<!-- ichecker&#45;&gt;solver -->
<g id="edge3" class="edge">
<title>ichecker&#45;&gt;solver</title>
<path fill="none" stroke="black" d="M420.06,-47.02C430.59,-47.02 441.05,-47.02 450.7,-47.02"/>
<polygon fill="black" stroke="black" points="450.49,-50.52 460.49,-47.02 450.49,-43.52 450.49,-50.52"/>
<text text-anchor="start" x="437.73" y="-50.22" font-family="Times,serif" font-size="14.00">3</text>
</g>
</g>
</svg>
