<?xml version="1.0" encoding="UTF-8" standalone="no"?>
<!DOCTYPE svg PUBLIC "-//W3C//DTD SVG 1.1//EN"
 "http://www.w3.org/Graphics/SVG/1.1/DTD/svg11.dtd">
<!-- Generated by graphviz version 12.0.0 (20240704.0754)
 -->
<!-- Pages: 1 -->
<svg width="402pt" height="73pt"
 viewBox="0.00 0.00 402.14 73.02" xmlns="http://www.w3.org/2000/svg" xmlns:xlink="http://www.w3.org/1999/xlink">
<g id="graph0" class="graph" transform="scale(1 1) rotate(0) translate(4 69.02)">
<polygon fill="white" stroke="none" points="-4,4 -4,-69.02 398.14,-69.02 398.14,4 -4,4"/>
<text text-anchor="middle" x="197.07" y="-7.2" font-family="Times,serif" font-size="14.00">Test Input &amp; Interactive Checker</text>
<!-- testinput -->
<g id="node1" class="node">
<title>testinput</title>
<polygon fill="none" stroke="black" points="71.5,-65.02 0,-65.02 0,-29.02 71.5,-29.02 71.5,-65.02"/>
<text text-anchor="start" x="8" y="-41.97" font-family="Times,serif" font-size="14.00">Test Input</text>
</g>
<!-- ichecker -->
<g id="node3" class="node">
<title>ichecker</title>
<ellipse fill="none" stroke="black" cx="197.85" cy="-47.02" rx="83.6" ry="18"/>
<text text-anchor="start" x="144.6" y="-41.97" font-family="Times,serif" font-size="14.00">Interactive Checker</text>
</g>
<!-- testinput&#45;&gt;ichecker -->
<g id="edge1" class="edge">
<title>testinput&#45;&gt;ichecker</title>
<path fill="none" stroke="black" d="M71.88,-47.02C81.17,-47.02 91.66,-47.02 102.5,-47.02"/>
<polygon fill="black" stroke="black" points="102.39,-50.52 112.39,-47.02 102.39,-43.52 102.39,-50.52"/>
<text text-anchor="start" x="89.5" y="-50.22" font-family="Times,serif" font-size="14.00">1</text>
</g>
<!-- solver -->
<g id="node2" class="node">
<title>solver</title>
<ellipse fill="none" stroke="black" cx="359.16" cy="-47.02" rx="34.97" ry="18"/>
<text text-anchor="start" x="341.54" y="-41.97" font-family="Times,serif" font-size="14.00">Solver</text>
</g>
<!-- solver&#45;&gt;ichecker -->
<g id="edge3" class="edge">
<title>solver&#45;&gt;ichecker</title>
<path fill="none" stroke="black" d="M332.83,-34.83C324.53,-31.44 315.15,-28.22 306.19,-26.52 288.84,-23.22 269.91,-25.03 252.84,-28.68"/>
<polygon fill="black" stroke="black" points="252.31,-25.2 243.41,-30.94 253.95,-32.01 252.31,-25.2"/>
<text text-anchor="start" x="299.44" y="-29.22" font-family="Times,serif" font-size="14.00">3</text>
</g>
<!-- ichecker&#45;&gt;solver -->
<g id="edge2" class="edge">
<title>ichecker&#45;&gt;solver</title>
<path fill="none" stroke="black" d="M281.77,-47.02C292.31,-47.02 302.77,-47.02 312.41,-47.02"/>
<polygon fill="black" stroke="black" points="312.21,-50.52 322.21,-47.02 312.21,-43.52 312.21,-50.52"/>
<text text-anchor="start" x="299.44" y="-50.22" font-family="Times,serif" font-size="14.00">2</text>
</g>
</g>
</svg>
