<?xml version="1.0" encoding="UTF-8" standalone="no"?>
<!DOCTYPE svg PUBLIC "-//W3C//DTD SVG 1.1//EN"
 "http://www.w3.org/Graphics/SVG/1.1/DTD/svg11.dtd">
<!-- Generated by graphviz version 12.0.0 (20240704.0754)
 -->
<!-- Pages: 1 -->
<svg width="419pt" height="123pt"
 viewBox="0.00 0.00 419.32 122.50" xmlns="http://www.w3.org/2000/svg" xmlns:xlink="http://www.w3.org/1999/xlink">
<g id="graph0" class="graph" transform="scale(1 1) rotate(0) translate(4 118.5)">
<text text-anchor="middle" x="205.66" y="-7.2" font-family="Times,serif" font-size="14.00">Test Input &amp; Test Answer</text>
<!-- testinput -->
<g id="node1" class="node">
<title>testinput</title>
<polygon fill="none" stroke="black" points="71.5,-114.5 0,-114.5 0,-78.5 71.5,-78.5 71.5,-114.5"/>
<text text-anchor="start" x="8" y="-91.45" font-family="Times,serif" font-size="14.00">Test Input</text>
</g>
<!-- solver -->
<g id="node3" class="node">
<title>solver</title>
<ellipse fill="none" stroke="black" cx="149.62" cy="-96.5" rx="34.97" ry="18"/>
<text text-anchor="start" x="132" y="-91.45" font-family="Times,serif" font-size="14.00">Solver</text>
</g>
<!-- testinput&#45;&gt;solver -->
<g id="edge1" class="edge">
<title>testinput&#45;&gt;solver</title>
<path fill="none" stroke="blue" d="M71.84,-96.5C81.71,-96.5 92.59,-96.5 102.98,-96.5"/>
<polygon fill="blue" stroke="blue" points="102.91,-100 112.91,-96.5 102.91,-93 102.91,-100"/>
</g>
<!-- testanswer -->
<g id="node2" class="node">
<title>testanswer</title>
<polygon fill="none" stroke="black" points="191.75,-60.5 107.5,-60.5 107.5,-24.5 191.75,-24.5 191.75,-60.5"/>
<text text-anchor="start" x="115.5" y="-37.45" font-family="Times,serif" font-size="14.00">Test Answer</text>
</g>
<!-- checker -->
<g id="node4" class="node">
<title>checker</title>
<ellipse fill="none" stroke="black" cx="319.53" cy="-69.5" rx="91.78" ry="18"/>
<text text-anchor="start" x="260.28" y="-64.45" font-family="Times,serif" font-size="14.00">Token&#45;based Checker</text>
</g>
<!-- testanswer&#45;&gt;checker -->
<g id="edge3" class="edge">
<title>testanswer&#45;&gt;checker</title>
<path fill="none" stroke="blue" d="M192.13,-49.17C205.57,-51.34 220.98,-53.81 236.32,-56.28"/>
<polygon fill="blue" stroke="blue" points="235.52,-59.7 245.95,-57.83 236.63,-52.78 235.52,-59.7"/>
</g>
<!-- solver&#45;&gt;checker -->
<g id="edge2" class="edge">
<title>solver&#45;&gt;checker</title>
<path fill="none" stroke="blue" d="M183.4,-91.23C198.57,-88.79 217.34,-85.77 236.01,-82.77"/>
<polygon fill="blue" stroke="blue" points="236.47,-86.24 245.79,-81.2 235.36,-79.33 236.47,-86.24"/>
</g>
</g>
</svg>
